Genre:Action | Adventure | Fantasy
Language:English
IMDb:http://www.imdb.com/title/tt0948470/
Source:R6 720p/ADTRGThanks!
Encoder:Tony

Format : AVI
Format/Info : Audio Video Interleave
File size : 1.31 GiB
Duration : 2h 9mn
Overall bit rate : 1 442 Kbps

Video
ID : 0
Format : MPEG-4 Visual
Format profile : Simple@L5
Format settings, BVOP : No
Format settings, QPel : No
Format settings, GMC : No warppoints
Format settings, Matrix : Default (H.263)
Codec ID : XVID
Codec ID/Hint : XviD
Duration : 2h 9mn
Bit rate : 1 304 Kbps
Width : 720 pixels
Height : 304 pixels
Display aspect ratio : 2.35:1
Frame rate : 23.976 fps
Color space : YUV
Chroma subsampling : 4:2:0
Bit depth : 8 bits
Scan type : Progressive
Compression mode : Lossy
Bits/(Pixel*Frame) : 0.249
Stream size : 1.18 GiB (90%)
Writing library : XviD 64

Audio
ID : 1
Format : AC-3
Format/Info : Audio Coding 3
Mode extension : CM (complete main)
Codec ID : 2000
Duration : 2h 9mn
Bit rate mode : Constant
Bit rate : 128 Kbps
Channel(s) : 2 channels
Channel positions : Front: L R
Sampling rate : 48.0 KHz
Bit depth : 16 bits
Compression mode : Lossy
Stream size : 119 MiB (9%)
Alignment : Split accross interleaves
Interleave, duration : 42 ms (1.00 video frame)
Interleave, preload duration : 500 ms


Plot:
Peter Parker finds a clue that might help him understand why his parents disappeared when he was young. His path puts him on a collision course with Dr. Curt Connors, his father's former partner.
 
http://imageshack.us/a/img39/8638/vlcsnap2012091620h10m33.png 
http://imageshack.us/a/img705/2193/vlcsnap2012091620h10m26.png 
http://imageshack.us/a/img849/3620/vlcsnap2012091620h10m57.png
